# xmcd
#
# Track frame offsets:
# 150
# 16520
# 33385
# 52692
# 60752
# 82077
# 125742
# 167807
# 204042
# 258387
# 294925
#
# Disc length: 4443 seconds
#
#
# Revision: 0
# Processed by: cddbd v1.4PL0 Copyright (c) Steve Scherf et al.
# Submitted via: FreeRIP 2.30 
#
DISCID=8111590b
DTITLE=Various Artist - Bluegrass Compilation - Radio Series - Volume 1
DYEAR=1998
DGENRE=Bluegrass
TTITLE0=Stanley Brothers - Stanley's Theme - Cripple Creek: Sunnyside of the Mt.
TTITLE1=Stanley Brothers - Don't Let Your Sweet Love Die: Little Maggie
TTITLE2=Stanley Bros - Mountain Pickin': Comedy...Uncle Henry, Good Ole Mt. Dew
TTITLE3=Stanley Bros - Clinch Mt. Backstep: Whoa Mule Whoa
TTITLE4=Stanley Bros - Weeping Willow: Rank Stranger, Cripple Creek
TTITLE5=The Basement Band - I'm On My Way Back To The Old Home: Lonesome Old Home, Billy in the Low Ground
TTITLE6=The Basement Band - Bring Back To Me My Wandering Boy: Six More Miles, Our Darlin's Gone, Old Joe Clark
TTITLE7=Warrior River Boys - Long Journey Home: Log Cabin In The Lane, I Know You're Married
TTITLE8=Warrior River Boys - Fireball Mail: Wreck of the #9, Lightning Express, I'm Blue and I'm Lonesome Too
TTITLE9=Gillis Bros - Train 45: New River Train
TTITLE10=Gillis Bros - Jenny Lynn: What Will The Coming Of The Lord Mean To You, Keeper Of The Door Of Time
EXTD=Compiled by Ray Davis of WAMU, Washington DC
EXTT0=
EXTT1=
EXTT2=
EXTT3=
EXTT4=
EXTT5=
EXTT6=
EXTT7=
EXTT8=
EXTT9=
EXTT10=
PLAYORDER=
